<svg width="49" height="49" viewBox="0 0 49 49" fill="none" xmlns="http://www.w3.org/2000/svg">
<path fill-rule="evenodd" clip-rule="evenodd" d="M17.8039 1.2563C23.3107 -0.323379 29.4042 0.741027 35.6779 4.21775C41.9517 7.69447 46.0842 12.2971 47.6642 17.804C49.2438 23.3107 48.1793 29.4041 44.7026 35.6779C41.2258 41.9516 36.6233 46.0842 31.1165 47.6642C25.6095 49.2437 19.5162 48.1792 13.2424 44.7025C6.9687 41.2258 2.83595 36.6232 1.25627 31.1165C-0.323262 25.6095 0.741077 19.5161 4.2178 13.2424C7.69452 6.96865 12.2972 2.83595 17.8039 1.2563ZM33.1966 14.7783C36.4695 16.592 37.6776 20.8034 35.864 24.0763C35.0483 25.5486 33.7646 26.7347 32.1456 27.3052C32.7889 29.2756 32.6537 31.4962 31.5846 33.4254C29.5446 37.1066 24.8025 38.4669 21.1212 36.4268L20.3564 36.003L19.5668 37.4278C18.9932 38.463 17.689 38.837 16.6539 38.2634C15.6187 37.6897 15.2446 36.3856 15.8183 35.3504L16.6078 33.9256L11.8547 31.2916C10.8196 30.718 10.4454 29.4138 11.0191 28.3787C11.5927 27.3435 12.8969 26.9694 13.9321 27.5431L15.0566 28.1663L22.9174 13.9816L21.7928 13.3584C20.7576 12.7848 20.3835 11.4806 20.9572 10.4454C21.5308 9.41029 22.835 9.03617 23.8701 9.60982L28.6232 12.2438L29.1134 11.3594C29.687 10.3243 30.9912 9.95016 32.0263 10.5238C33.0615 11.0975 33.4356 12.4016 32.862 13.4368L32.3718 14.3212L33.1966 14.7783ZM27.836 31.348C26.9433 32.9589 24.8095 33.571 23.1986 32.6783L18.8052 30.2436L22.1124 24.2759L26.5057 26.7106C28.1167 27.6033 28.7288 29.7371 27.836 31.348ZM31.1193 18.5269C32.3219 19.1933 32.7818 20.7966 32.1153 21.9991C31.3594 23.3635 29.9283 23.7074 28.5831 22.962L24.1898 20.5273L26.666 16.059L31.1193 18.5269Z" fill="#FFE500"/>
</svg>
