<svg width="323" height="46" viewBox="0 0 323 46" fill="none" xmlns="http://www.w3.org/2000/svg">
<path d="M4.3148 10.68V0.18H9.0848C10.2248 0.18 11.2298 0.4 12.0998 0.84C12.9698 1.27 13.6498 1.875 14.1398 2.655C14.6298 3.435 14.8748 4.36 14.8748 5.43C14.8748 6.49 14.6298 7.415 14.1398 8.205C13.6498 8.985 12.9698 9.595 12.0998 10.035C11.2298 10.465 10.2248 10.68 9.0848 10.68H4.3148ZM6.7448 8.685H8.9648C9.6648 8.685 10.2698 8.555 10.7798 8.295C11.2998 8.025 11.6998 7.645 11.9798 7.155C12.2698 6.665 12.4148 6.09 12.4148 5.43C12.4148 4.76 12.2698 4.185 11.9798 3.705C11.6998 3.215 11.2998 2.84 10.7798 2.58C10.2698 2.31 9.6648 2.175 8.9648 2.175H6.7448V8.685Z" fill="#A8A5CA"/>
<path d="M20.8538 10.68V0.18H23.2838V10.68H20.8538Z" fill="#A8A5CA"/>
<path d="M33.3722 10.86C32.5322 10.86 31.7272 10.75 30.9572 10.53C30.1872 10.3 29.5672 10.005 29.0972 9.645L29.9222 7.815C30.3722 8.135 30.9022 8.4 31.5122 8.61C32.1322 8.81 32.7572 8.91 33.3872 8.91C33.8672 8.91 34.2522 8.865 34.5422 8.775C34.8422 8.675 35.0622 8.54 35.2022 8.37C35.3422 8.2 35.4122 8.005 35.4122 7.785C35.4122 7.505 35.3022 7.285 35.0822 7.125C34.8622 6.955 34.5722 6.82 34.2122 6.72C33.8522 6.61 33.4522 6.51 33.0122 6.42C32.5822 6.32 32.1472 6.2 31.7072 6.06C31.2772 5.92 30.8822 5.74 30.5222 5.52C30.1622 5.3 29.8672 5.01 29.6372 4.65C29.4172 4.29 29.3072 3.83 29.3072 3.27C29.3072 2.67 29.4672 2.125 29.7872 1.635C30.1172 1.135 30.6072 0.74 31.2572 0.45C31.9172 0.15 32.7422 0 33.7322 0C34.3922 0 35.0422 0.08 35.6822 0.24C36.3222 0.39 36.8872 0.62 37.3772 0.93L36.6272 2.775C36.1372 2.495 35.6472 2.29 35.1572 2.16C34.6672 2.02 34.1872 1.95 33.7172 1.95C33.2472 1.95 32.8622 2.005 32.5622 2.115C32.2622 2.225 32.0472 2.37 31.9172 2.55C31.7872 2.72 31.7222 2.92 31.7222 3.15C31.7222 3.42 31.8322 3.64 32.0522 3.81C32.2722 3.97 32.5622 4.1 32.9222 4.2C33.2822 4.3 33.6772 4.4 34.1072 4.5C34.5472 4.6 34.9822 4.715 35.4122 4.845C35.8522 4.975 36.2522 5.15 36.6122 5.37C36.9722 5.59 37.2622 5.88 37.4822 6.24C37.7122 6.6 37.8272 7.055 37.8272 7.605C37.8272 8.195 37.6622 8.735 37.3322 9.225C37.0022 9.715 36.5072 10.11 35.8472 10.41C35.1972 10.71 34.3722 10.86 33.3722 10.86Z" fill="#A8A5CA"/>
<path d="M48.659 10.86C47.849 10.86 47.094 10.73 46.394 10.47C45.704 10.2 45.104 9.82 44.594 9.33C44.084 8.84 43.684 8.265 43.394 7.605C43.114 6.945 42.974 6.22 42.974 5.43C42.974 4.64 43.114 3.915 43.394 3.255C43.684 2.595 44.084 2.02 44.594 1.53C45.114 1.04 45.719 0.664999 46.409 0.404999C47.099 0.135 47.854 0 48.674 0C49.584 0 50.404 0.16 51.134 0.48C51.874 0.79 52.494 1.25 52.994 1.86L51.434 3.3C51.074 2.89 50.674 2.585 50.234 2.385C49.794 2.175 49.314 2.07 48.794 2.07C48.304 2.07 47.854 2.15 47.444 2.31C47.034 2.47 46.679 2.7 46.379 3C46.079 3.3 45.844 3.655 45.674 4.065C45.514 4.475 45.434 4.93 45.434 5.43C45.434 5.93 45.514 6.385 45.674 6.795C45.844 7.205 46.079 7.56 46.379 7.86C46.679 8.16 47.034 8.39 47.444 8.55C47.854 8.71 48.304 8.79 48.794 8.79C49.314 8.79 49.794 8.69 50.234 8.49C50.674 8.28 51.074 7.965 51.434 7.545L52.994 8.985C52.494 9.595 51.874 10.06 51.134 10.38C50.404 10.7 49.579 10.86 48.659 10.86Z" fill="#A8A5CA"/>
<path d="M63.6617 10.86C62.8317 10.86 62.0617 10.725 61.3517 10.455C60.6517 10.185 60.0417 9.805 59.5217 9.315C59.0117 8.825 58.6117 8.25 58.3217 7.59C58.0417 6.93 57.9017 6.21 57.9017 5.43C57.9017 4.65 58.0417 3.93 58.3217 3.27C58.6117 2.61 59.0167 2.035 59.5367 1.545C60.0567 1.055 60.6667 0.674999 61.3667 0.404999C62.0667 0.135 62.8267 0 63.6467 0C64.4767 0 65.2367 0.135 65.9267 0.404999C66.6267 0.674999 67.2317 1.055 67.7417 1.545C68.2617 2.035 68.6667 2.61 68.9567 3.27C69.2467 3.92 69.3917 4.64 69.3917 5.43C69.3917 6.21 69.2467 6.935 68.9567 7.605C68.6667 8.265 68.2617 8.84 67.7417 9.33C67.2317 9.81 66.6267 10.185 65.9267 10.455C65.2367 10.725 64.4817 10.86 63.6617 10.86ZM63.6467 8.79C64.1167 8.79 64.5467 8.71 64.9367 8.55C65.3367 8.39 65.6867 8.16 65.9867 7.86C66.2867 7.56 66.5167 7.205 66.6767 6.795C66.8467 6.385 66.9317 5.93 66.9317 5.43C66.9317 4.93 66.8467 4.475 66.6767 4.065C66.5167 3.655 66.2867 3.3 65.9867 3C65.6967 2.7 65.3517 2.47 64.9517 2.31C64.5517 2.15 64.1167 2.07 63.6467 2.07C63.1767 2.07 62.7417 2.15 62.3417 2.31C61.9517 2.47 61.6067 2.7 61.3067 3C61.0067 3.3 60.7717 3.655 60.6017 4.065C60.4417 4.475 60.3617 4.93 60.3617 5.43C60.3617 5.92 60.4417 6.375 60.6017 6.795C60.7717 7.205 61.0017 7.56 61.2917 7.86C61.5917 8.16 61.9417 8.39 62.3417 8.55C62.7417 8.71 63.1767 8.79 63.6467 8.79Z" fill="#A8A5CA"/>
<path d="M78.1775 10.68L73.6475 0.18H76.2725L80.2325 9.48H78.6875L82.7075 0.18H85.1225L80.5775 10.68H78.1775Z" fill="#A8A5CA"/>
<path d="M92.3807 4.41H97.4357V6.3H92.3807V4.41ZM92.5607 8.73H98.2757V10.68H90.1457V0.18H98.0807V2.13H92.5607V8.73Z" fill="#A8A5CA"/>
<path d="M104.356 10.68V0.18H108.901C109.841 0.18 110.651 0.335 111.331 0.645C112.011 0.945 112.536 1.38 112.906 1.95C113.276 2.52 113.461 3.2 113.461 3.99C113.461 4.77 113.276 5.445 112.906 6.015C112.536 6.575 112.011 7.005 111.331 7.305C110.651 7.605 109.841 7.755 108.901 7.755H105.706L106.786 6.69V10.68H104.356ZM111.031 10.68L108.406 6.87H111.001L113.656 10.68H111.031ZM106.786 6.96L105.706 5.82H108.766C109.516 5.82 110.076 5.66 110.446 5.34C110.816 5.01 111.001 4.56 111.001 3.99C111.001 3.41 110.816 2.96 110.446 2.64C110.076 2.32 109.516 2.16 108.766 2.16H105.706L106.786 1.005V6.96Z" fill="#A8A5CA"/>
<path d="M130.537 10.68V6.39L131.092 7.86L126.472 0.18H129.052L132.592 6.075H131.107L134.662 0.18H137.047L132.427 7.86L132.967 6.39V10.68H130.537Z" fill="#A8A5CA"/>
<path d="M146.856 10.86C146.026 10.86 145.256 10.725 144.546 10.455C143.846 10.185 143.236 9.805 142.716 9.315C142.206 8.825 141.806 8.25 141.516 7.59C141.236 6.93 141.096 6.21 141.096 5.43C141.096 4.65 141.236 3.93 141.516 3.27C141.806 2.61 142.211 2.035 142.731 1.545C143.251 1.055 143.861 0.674999 144.561 0.404999C145.261 0.135 146.021 0 146.841 0C147.671 0 148.431 0.135 149.121 0.404999C149.821 0.674999 150.426 1.055 150.936 1.545C151.456 2.035 151.861 2.61 152.151 3.27C152.441 3.92 152.586 4.64 152.586 5.43C152.586 6.21 152.441 6.935 152.151 7.605C151.861 8.265 151.456 8.84 150.936 9.33C150.426 9.81 149.821 10.185 149.121 10.455C148.431 10.725 147.676 10.86 146.856 10.86ZM146.841 8.79C147.311 8.79 147.741 8.71 148.131 8.55C148.531 8.39 148.881 8.16 149.181 7.86C149.481 7.56 149.711 7.205 149.871 6.795C150.041 6.385 150.126 5.93 150.126 5.43C150.126 4.93 150.041 4.475 149.871 4.065C149.711 3.655 149.481 3.3 149.181 3C148.891 2.7 148.546 2.47 148.146 2.31C147.746 2.15 147.311 2.07 146.841 2.07C146.371 2.07 145.936 2.15 145.536 2.31C145.146 2.47 144.801 2.7 144.501 3C144.201 3.3 143.966 3.655 143.796 4.065C143.636 4.475 143.556 4.93 143.556 5.43C143.556 5.92 143.636 6.375 143.796 6.795C143.966 7.205 144.196 7.56 144.486 7.86C144.786 8.16 145.136 8.39 145.536 8.55C145.936 8.71 146.371 8.79 146.841 8.79Z" fill="#A8A5CA"/>
<path d="M163.224 10.86C161.734 10.86 160.569 10.445 159.729 9.615C158.889 8.785 158.469 7.6 158.469 6.06V0.18H160.899V5.97C160.899 6.97 161.104 7.69 161.514 8.13C161.924 8.57 162.499 8.79 163.239 8.79C163.979 8.79 164.554 8.57 164.964 8.13C165.374 7.69 165.579 6.97 165.579 5.97V0.18H167.979V6.06C167.979 7.6 167.559 8.785 166.719 9.615C165.879 10.445 164.714 10.86 163.224 10.86Z" fill="#A8A5CA"/>
<path d="M174.526 10.68V0.18H179.071C180.011 0.18 180.821 0.335 181.501 0.645C182.181 0.945 182.706 1.38 183.076 1.95C183.446 2.52 183.631 3.2 183.631 3.99C183.631 4.77 183.446 5.445 183.076 6.015C182.706 6.575 182.181 7.005 181.501 7.305C180.821 7.605 180.011 7.755 179.071 7.755H175.876L176.956 6.69V10.68H174.526ZM181.201 10.68L178.576 6.87H181.171L183.826 10.68H181.201ZM176.956 6.96L175.876 5.82H178.936C179.686 5.82 180.246 5.66 180.616 5.34C180.986 5.01 181.171 4.56 181.171 3.99C181.171 3.41 180.986 2.96 180.616 2.64C180.246 2.32 179.686 2.16 178.936 2.16H175.876L176.956 1.005V6.96Z" fill="#A8A5CA"/>
<path d="M198.098 10.68V0.18H202.643C203.583 0.18 204.393 0.335 205.073 0.645C205.753 0.945 206.278 1.38 206.648 1.95C207.018 2.52 207.203 3.2 207.203 3.99C207.203 4.77 207.018 5.445 206.648 6.015C206.278 6.585 205.753 7.025 205.073 7.335C204.393 7.635 203.583 7.785 202.643 7.785H199.448L200.528 6.69V10.68H198.098ZM200.528 6.96L199.448 5.805H202.508C203.258 5.805 203.818 5.645 204.188 5.325C204.558 5.005 204.743 4.56 204.743 3.99C204.743 3.41 204.558 2.96 204.188 2.64C203.818 2.32 203.258 2.16 202.508 2.16H199.448L200.528 1.005V6.96Z" fill="#A8A5CA"/>
<path d="M218.33 10.86C217.5 10.86 216.73 10.725 216.02 10.455C215.32 10.185 214.71 9.805 214.19 9.315C213.68 8.825 213.28 8.25 212.99 7.59C212.71 6.93 212.57 6.21 212.57 5.43C212.57 4.65 212.71 3.93 212.99 3.27C213.28 2.61 213.685 2.035 214.205 1.545C214.725 1.055 215.335 0.674999 216.035 0.404999C216.735 0.135 217.495 0 218.315 0C219.145 0 219.905 0.135 220.595 0.404999C221.295 0.674999 221.9 1.055 222.41 1.545C222.93 2.035 223.335 2.61 223.625 3.27C223.915 3.92 224.06 4.64 224.06 5.43C224.06 6.21 223.915 6.935 223.625 7.605C223.335 8.265 222.93 8.84 222.41 9.33C221.9 9.81 221.295 10.185 220.595 10.455C219.905 10.725 219.15 10.86 218.33 10.86ZM218.315 8.79C218.785 8.79 219.215 8.71 219.605 8.55C220.005 8.39 220.355 8.16 220.655 7.86C220.955 7.56 221.185 7.205 221.345 6.795C221.515 6.385 221.6 5.93 221.6 5.43C221.6 4.93 221.515 4.475 221.345 4.065C221.185 3.655 220.955 3.3 220.655 3C220.365 2.7 220.02 2.47 219.62 2.31C219.22 2.15 218.785 2.07 218.315 2.07C217.845 2.07 217.41 2.15 217.01 2.31C216.62 2.47 216.275 2.7 215.975 3C215.675 3.3 215.44 3.655 215.27 4.065C215.11 4.475 215.03 4.93 215.03 5.43C215.03 5.92 215.11 6.375 215.27 6.795C215.44 7.205 215.67 7.56 215.96 7.86C216.26 8.16 216.61 8.39 217.01 8.55C217.41 8.71 217.845 8.79 218.315 8.79Z" fill="#A8A5CA"/>
<path d="M232.062 10.68V2.16H228.702V0.18H237.852V2.16H234.492V10.68H232.062Z" fill="#A8A5CA"/>
<path d="M245.54 4.41H250.595V6.3H245.54V4.41ZM245.72 8.73H251.435V10.68H243.305V0.18H251.24V2.13H245.72V8.73Z" fill="#A8A5CA"/>
<path d="M257.515 10.68V0.18H259.525L265.72 7.74H264.745V0.18H267.145V10.68H265.15L258.94 3.12H259.915V10.68H257.515Z" fill="#A8A5CA"/>
<path d="M275.951 10.68V2.16H272.591V0.18H281.741V2.16H278.381V10.68H275.951Z" fill="#A8A5CA"/>
<path d="M287.195 10.68V0.18H289.625V10.68H287.195Z" fill="#A8A5CA"/>
<path d="M294.883 10.68L299.563 0.18H301.963L306.658 10.68H304.108L300.268 1.41H301.228L297.373 10.68H294.883ZM297.223 8.43L297.868 6.585H303.268L303.928 8.43H297.223Z" fill="#A8A5CA"/>
<path d="M311.894 10.68V0.18H314.324V8.7H319.589V10.68H311.894Z" fill="#A8A5CA"/>
<path d="M0 27.68V17.18H2.43V27.68H0Z" fill="#A8A5CA"/>
<path d="M9.06833 27.68V17.18H11.0783L17.2733 24.74H16.2983V17.18H18.6983V27.68H16.7033L10.4933 20.12H11.4683V27.68H9.06833Z" fill="#A8A5CA"/>
<path d="M30.354 27.86C29.544 27.86 28.789 27.73 28.089 27.47C27.399 27.2 26.799 26.82 26.289 26.33C25.779 25.84 25.379 25.265 25.089 24.605C24.809 23.945 24.669 23.22 24.669 22.43C24.669 21.64 24.809 20.915 25.089 20.255C25.379 19.595 25.779 19.02 26.289 18.53C26.809 18.04 27.414 17.665 28.104 17.405C28.794 17.135 29.549 17 30.369 17C31.279 17 32.099 17.16 32.829 17.48C33.569 17.79 34.189 18.25 34.689 18.86L33.129 20.3C32.769 19.89 32.369 19.585 31.929 19.385C31.489 19.175 31.009 19.07 30.489 19.07C29.999 19.07 29.549 19.15 29.139 19.31C28.729 19.47 28.374 19.7 28.074 20C27.774 20.3 27.539 20.655 27.369 21.065C27.209 21.475 27.129 21.93 27.129 22.43C27.129 22.93 27.209 23.385 27.369 23.795C27.539 24.205 27.774 24.56 28.074 24.86C28.374 25.16 28.729 25.39 29.139 25.55C29.549 25.71 29.999 25.79 30.489 25.79C31.009 25.79 31.489 25.69 31.929 25.49C32.369 25.28 32.769 24.965 33.129 24.545L34.689 25.985C34.189 26.595 33.569 27.06 32.829 27.38C32.099 27.7 31.274 27.86 30.354 27.86Z" fill="#A8A5CA"/>
<path d="M45.3567 27.86C44.5267 27.86 43.7567 27.725 43.0467 27.455C42.3467 27.185 41.7367 26.805 41.2167 26.315C40.7067 25.825 40.3067 25.25 40.0167 24.59C39.7367 23.93 39.5967 23.21 39.5967 22.43C39.5967 21.65 39.7367 20.93 40.0167 20.27C40.3067 19.61 40.7117 19.035 41.2317 18.545C41.7517 18.055 42.3617 17.675 43.0617 17.405C43.7617 17.135 44.5217 17 45.3417 17C46.1717 17 46.9317 17.135 47.6217 17.405C48.3217 17.675 48.9267 18.055 49.4367 18.545C49.9567 19.035 50.3617 19.61 50.6517 20.27C50.9417 20.92 51.0867 21.64 51.0867 22.43C51.0867 23.21 50.9417 23.935 50.6517 24.605C50.3617 25.265 49.9567 25.84 49.4367 26.33C48.9267 26.81 48.3217 27.185 47.6217 27.455C46.9317 27.725 46.1767 27.86 45.3567 27.86ZM45.3417 25.79C45.8117 25.79 46.2417 25.71 46.6317 25.55C47.0317 25.39 47.3817 25.16 47.6817 24.86C47.9817 24.56 48.2117 24.205 48.3717 23.795C48.5417 23.385 48.6267 22.93 48.6267 22.43C48.6267 21.93 48.5417 21.475 48.3717 21.065C48.2117 20.655 47.9817 20.3 47.6817 20C47.3917 19.7 47.0467 19.47 46.6467 19.31C46.2467 19.15 45.8117 19.07 45.3417 19.07C44.8717 19.07 44.4367 19.15 44.0367 19.31C43.6467 19.47 43.3017 19.7 43.0017 20C42.7017 20.3 42.4667 20.655 42.2967 21.065C42.1367 21.475 42.0567 21.93 42.0567 22.43C42.0567 22.92 42.1367 23.375 42.2967 23.795C42.4667 24.205 42.6967 24.56 42.9867 24.86C43.2867 25.16 43.6367 25.39 44.0367 25.55C44.4367 25.71 44.8717 25.79 45.3417 25.79Z" fill="#A8A5CA"/>
<path d="M57.0594 27.68V17.18H59.0694L63.5394 24.59H62.4744L66.8694 17.18H68.8644L68.8944 27.68H66.6144L66.5994 20.675H67.0194L63.5094 26.57H62.4144L58.8294 20.675H59.3394V27.68H57.0594Z" fill="#A8A5CA"/>
<path d="M77.7671 21.41H82.8221V23.3H77.7671V21.41ZM77.9471 25.73H83.6621V27.68H75.5321V17.18H83.4671V19.13H77.9471V25.73Z" fill="#A8A5CA"/>
<path d="M98.1365 27.68V17.18H100.566V27.68H98.1365Z" fill="#A8A5CA"/>
<path d="M107.205 27.68V17.18H109.215L115.41 24.74H114.435V17.18H116.835V27.68H114.84L108.63 20.12H109.605V27.68H107.205Z" fill="#A8A5CA"/>
<path d="M134.035 27.68V19.16H130.675V17.18H139.825V19.16H136.465V27.68H134.035Z" fill="#A8A5CA"/>
<path d="M152.479 17.18H154.909V27.68H152.479V17.18ZM147.709 27.68H145.279V17.18H147.709V27.68ZM152.659 23.375H147.529V21.32H152.659V23.375Z" fill="#A8A5CA"/>
<path d="M163.775 21.41H168.83V23.3H163.775V21.41ZM163.955 25.73H169.67V27.68H161.54V17.18H169.475V19.13H163.955V25.73Z" fill="#A8A5CA"/>
<path d="M187.594 27.86C186.754 27.86 185.949 27.75 185.179 27.53C184.409 27.3 183.789 27.005 183.319 26.645L184.144 24.815C184.594 25.135 185.124 25.4 185.734 25.61C186.354 25.81 186.979 25.91 187.609 25.91C188.089 25.91 188.474 25.865 188.764 25.775C189.064 25.675 189.284 25.54 189.424 25.37C189.564 25.2 189.634 25.005 189.634 24.785C189.634 24.505 189.524 24.285 189.304 24.125C189.084 23.955 188.794 23.82 188.434 23.72C188.074 23.61 187.674 23.51 187.234 23.42C186.804 23.32 186.369 23.2 185.929 23.06C185.499 22.92 185.104 22.74 184.744 22.52C184.384 22.3 184.089 22.01 183.859 21.65C183.639 21.29 183.529 20.83 183.529 20.27C183.529 19.67 183.689 19.125 184.009 18.635C184.339 18.135 184.829 17.74 185.479 17.45C186.139 17.15 186.964 17 187.954 17C188.614 17 189.264 17.08 189.904 17.24C190.544 17.39 191.109 17.62 191.599 17.93L190.849 19.775C190.359 19.495 189.869 19.29 189.379 19.16C188.889 19.02 188.409 18.95 187.939 18.95C187.469 18.95 187.084 19.005 186.784 19.115C186.484 19.225 186.269 19.37 186.139 19.55C186.009 19.72 185.944 19.92 185.944 20.15C185.944 20.42 186.054 20.64 186.274 20.81C186.494 20.97 186.784 21.1 187.144 21.2C187.504 21.3 187.899 21.4 188.329 21.5C188.769 21.6 189.204 21.715 189.634 21.845C190.074 21.975 190.474 22.15 190.834 22.37C191.194 22.59 191.484 22.88 191.704 23.24C191.934 23.6 192.049 24.055 192.049 24.605C192.049 25.195 191.884 25.735 191.554 26.225C191.224 26.715 190.729 27.11 190.069 27.41C189.419 27.71 188.594 27.86 187.594 27.86Z" fill="#A8A5CA"/>
<path d="M205.056 17.18H207.486V27.68H205.056V17.18ZM200.286 27.68H197.856V17.18H200.286V27.68ZM205.236 23.375H200.106V21.32H205.236V23.375Z" fill="#A8A5CA"/>
<path d="M219.217 27.86C218.387 27.86 217.617 27.725 216.907 27.455C216.207 27.185 215.597 26.805 215.077 26.315C214.567 25.825 214.167 25.25 213.877 24.59C213.597 23.93 213.457 23.21 213.457 22.43C213.457 21.65 213.597 20.93 213.877 20.27C214.167 19.61 214.572 19.035 215.092 18.545C215.612 18.055 216.222 17.675 216.922 17.405C217.622 17.135 218.382 17 219.202 17C220.032 17 220.792 17.135 221.482 17.405C222.182 17.675 222.787 18.055 223.297 18.545C223.817 19.035 224.222 19.61 224.512 20.27C224.802 20.92 224.947 21.64 224.947 22.43C224.947 23.21 224.802 23.935 224.512 24.605C224.222 25.265 223.817 25.84 223.297 26.33C222.787 26.81 222.182 27.185 221.482 27.455C220.792 27.725 220.037 27.86 219.217 27.86ZM219.202 25.79C219.672 25.79 220.102 25.71 220.492 25.55C220.892 25.39 221.242 25.16 221.542 24.86C221.842 24.56 222.072 24.205 222.232 23.795C222.402 23.385 222.487 22.93 222.487 22.43C222.487 21.93 222.402 21.475 222.232 21.065C222.072 20.655 221.842 20.3 221.542 20C221.252 19.7 220.907 19.47 220.507 19.31C220.107 19.15 219.672 19.07 219.202 19.07C218.732 19.07 218.297 19.15 217.897 19.31C217.507 19.47 217.162 19.7 216.862 20C216.562 20.3 216.327 20.655 216.157 21.065C215.997 21.475 215.917 21.93 215.917 22.43C215.917 22.92 215.997 23.375 216.157 23.795C216.327 24.205 216.557 24.56 216.847 24.86C217.147 25.16 217.497 25.39 217.897 25.55C218.297 25.71 218.732 25.79 219.202 25.79Z" fill="#A8A5CA"/>
<path d="M230.919 27.68V17.18H235.464C236.404 17.18 237.214 17.335 237.894 17.645C238.574 17.945 239.099 18.38 239.469 18.95C239.839 19.52 240.024 20.2 240.024 20.99C240.024 21.77 239.839 22.445 239.469 23.015C239.099 23.575 238.574 24.005 237.894 24.305C237.214 24.605 236.404 24.755 235.464 24.755H232.269L233.349 23.69V27.68H230.919ZM237.594 27.68L234.969 23.87H237.564L240.219 27.68H237.594ZM233.349 23.96L232.269 22.82H235.329C236.079 22.82 236.639 22.66 237.009 22.34C237.379 22.01 237.564 21.56 237.564 20.99C237.564 20.41 237.379 19.96 237.009 19.64C236.639 19.32 236.079 19.16 235.329 19.16H232.269L233.349 18.005V23.96Z" fill="#A8A5CA"/>
<path d="M248.125 27.68V19.16H244.765V17.18H253.915V19.16H250.555V27.68H248.125Z" fill="#A8A5CA"/>
<path d="M269.938 27.68V19.16H266.578V17.18H275.728V19.16H272.368V27.68H269.938Z" fill="#A8A5CA"/>
<path d="M283.417 21.41H288.472V23.3H283.417V21.41ZM283.597 25.73H289.312V27.68H281.182V17.18H289.117V19.13H283.597V25.73Z" fill="#A8A5CA"/>
<path d="M295.392 27.68V17.18H299.937C300.877 17.18 301.687 17.335 302.367 17.645C303.047 17.945 303.572 18.38 303.942 18.95C304.312 19.52 304.497 20.2 304.497 20.99C304.497 21.77 304.312 22.445 303.942 23.015C303.572 23.575 303.047 24.005 302.367 24.305C301.687 24.605 300.877 24.755 299.937 24.755H296.742L297.822 23.69V27.68H295.392ZM302.067 27.68L299.442 23.87H302.037L304.692 27.68H302.067ZM297.822 23.96L296.742 22.82H299.802C300.552 22.82 301.112 22.66 301.482 22.34C301.852 22.01 302.037 21.56 302.037 20.99C302.037 20.41 301.852 19.96 301.482 19.64C301.112 19.32 300.552 19.16 299.802 19.16H296.742L297.822 18.005V23.96Z" fill="#A8A5CA"/>
<path d="M310.569 27.68V17.18H312.579L317.049 24.59H315.984L320.379 17.18H322.374L322.404 27.68H320.124L320.109 20.675H320.529L317.019 26.57H315.924L312.339 20.675H312.849V27.68H310.569Z" fill="#A8A5CA"/>
<path d="M92.5321 45.62C92.1321 45.0133 91.8221 44.3133 91.6021 43.52C91.3887 42.72 91.2821 41.86 91.2821 40.94C91.2821 40.02 91.3887 39.16 91.6021 38.36C91.8221 37.5533 92.1321 36.8533 92.5321 36.26H94.0221C93.6021 37.0133 93.2954 37.7733 93.1021 38.54C92.9087 39.3 92.8121 40.1 92.8121 40.94C92.8121 41.78 92.9087 42.5833 93.1021 43.35C93.2954 44.11 93.6021 44.8667 94.0221 45.62H92.5321Z" fill="#A8A5CA"/>
<path d="M99.1027 43.68V36.68H100.443L103.423 41.62H102.713L105.643 36.68H106.973L106.993 43.68H105.473L105.463 39.01H105.743L103.403 42.94H102.673L100.283 39.01H100.623V43.68H99.1027Z" fill="#A8A5CA"/>
<path d="M111.88 43.68L115 36.68H116.6L119.73 43.68H118.03L115.47 37.5H116.11L113.54 43.68H111.88ZM113.44 42.18L113.87 40.95H117.47L117.91 42.18H113.44Z" fill="#A8A5CA"/>
<path d="M123.432 43.68L126.442 39.53V40.71L123.562 36.68H125.402L127.392 39.49L126.622 39.5L128.582 36.68H130.342L127.482 40.64V39.48L130.512 43.68H128.642L126.582 40.71H127.322L125.292 43.68H123.432Z" fill="#A8A5CA"/>
<path d="M135.997 43.76C135.73 43.76 135.5 43.67 135.307 43.49C135.12 43.3033 135.027 43.0667 135.027 42.78C135.027 42.4933 135.12 42.2633 135.307 42.09C135.5 41.91 135.73 41.82 135.997 41.82C136.27 41.82 136.5 41.91 136.687 42.09C136.873 42.2633 136.967 42.4933 136.967 42.78C136.967 43.0667 136.873 43.3033 136.687 43.49C136.5 43.67 136.27 43.76 135.997 43.76Z" fill="#A8A5CA"/>
<path d="M148.759 43.68V42.63L151.459 40.08C151.672 39.8867 151.829 39.7133 151.929 39.56C152.029 39.4067 152.095 39.2667 152.129 39.14C152.169 39.0133 152.189 38.8967 152.189 38.79C152.189 38.51 152.092 38.2967 151.899 38.15C151.712 37.9967 151.435 37.92 151.069 37.92C150.775 37.92 150.502 37.9767 150.249 38.09C150.002 38.2033 149.792 38.38 149.619 38.62L148.439 37.86C148.705 37.46 149.079 37.1433 149.559 36.91C150.039 36.6767 150.592 36.56 151.219 36.56C151.739 36.56 152.192 36.6467 152.579 36.82C152.972 36.9867 153.275 37.2233 153.489 37.53C153.709 37.8367 153.819 38.2033 153.819 38.63C153.819 38.8567 153.789 39.0833 153.729 39.31C153.675 39.53 153.562 39.7633 153.389 40.01C153.222 40.2567 152.975 40.5333 152.649 40.84L150.409 42.95L150.099 42.36H154.049V43.68H148.759Z" fill="#A8A5CA"/>
<path d="M166.282 43.68V36.68H167.622L170.602 41.62H169.892L172.822 36.68H174.152L174.172 43.68H172.652L172.642 39.01H172.922L170.582 42.94H169.852L167.462 39.01H167.802V43.68H166.282Z" fill="#A8A5CA"/>
<path d="M183.379 43.8C182.826 43.8 182.313 43.71 181.839 43.53C181.373 43.35 180.966 43.0967 180.619 42.77C180.279 42.4433 180.013 42.06 179.819 41.62C179.633 41.18 179.539 40.7 179.539 40.18C179.539 39.66 179.633 39.18 179.819 38.74C180.013 38.3 180.283 37.9167 180.629 37.59C180.976 37.2633 181.383 37.01 181.849 36.83C182.316 36.65 182.823 36.56 183.369 36.56C183.923 36.56 184.429 36.65 184.889 36.83C185.356 37.01 185.759 37.2633 186.099 37.59C186.446 37.9167 186.716 38.3 186.909 38.74C187.103 39.1733 187.199 39.6533 187.199 40.18C187.199 40.7 187.103 41.1833 186.909 41.63C186.716 42.07 186.446 42.4533 186.099 42.78C185.759 43.1 185.356 43.35 184.889 43.53C184.429 43.71 183.926 43.8 183.379 43.8ZM183.369 42.42C183.683 42.42 183.969 42.3667 184.229 42.26C184.496 42.1533 184.729 42 184.929 41.8C185.129 41.6 185.283 41.3633 185.389 41.09C185.503 40.8167 185.559 40.5133 185.559 40.18C185.559 39.8467 185.503 39.5433 185.389 39.27C185.283 38.9967 185.129 38.76 184.929 38.56C184.736 38.36 184.506 38.2067 184.239 38.1C183.973 37.9933 183.683 37.94 183.369 37.94C183.056 37.94 182.766 37.9933 182.499 38.1C182.239 38.2067 182.009 38.36 181.809 38.56C181.609 38.76 181.453 38.9967 181.339 39.27C181.233 39.5433 181.179 39.8467 181.179 40.18C181.179 40.5067 181.233 40.81 181.339 41.09C181.453 41.3633 181.606 41.6 181.799 41.8C181.999 42 182.233 42.1533 182.499 42.26C182.766 42.3667 183.056 42.42 183.369 42.42Z" fill="#A8A5CA"/>
<path d="M192.563 43.68V36.68H193.903L198.033 41.72H197.383V36.68H198.983V43.68H197.653L193.513 38.64H194.163V43.68H192.563Z" fill="#A8A5CA"/>
<path d="M206.236 43.68V38H203.996V36.68H210.096V38H207.856V43.68H206.236Z" fill="#A8A5CA"/>
<path d="M219.914 36.68H221.534V43.68H219.914V36.68ZM216.734 43.68H215.114V36.68H216.734V43.68ZM220.034 40.81H216.614V39.44H220.034V40.81Z" fill="#A8A5CA"/>
<path d="M229.637 43.8C229.077 43.8 228.54 43.7267 228.027 43.58C227.513 43.4267 227.1 43.23 226.787 42.99L227.337 41.77C227.637 41.9833 227.99 42.16 228.397 42.3C228.81 42.4333 229.227 42.5 229.647 42.5C229.967 42.5 230.223 42.47 230.417 42.41C230.617 42.3433 230.763 42.2533 230.857 42.14C230.95 42.0267 230.997 41.8967 230.997 41.75C230.997 41.5633 230.923 41.4167 230.777 41.31C230.63 41.1967 230.437 41.1067 230.197 41.04C229.957 40.9667 229.69 40.9 229.397 40.84C229.11 40.7733 228.82 40.6933 228.527 40.6C228.24 40.5067 227.977 40.3867 227.737 40.24C227.497 40.0933 227.3 39.9 227.147 39.66C227 39.42 226.927 39.1133 226.927 38.74C226.927 38.34 227.033 37.9767 227.247 37.65C227.467 37.3167 227.793 37.0533 228.227 36.86C228.667 36.66 229.217 36.56 229.877 36.56C230.317 36.56 230.75 36.6133 231.177 36.72C231.603 36.82 231.98 36.9733 232.307 37.18L231.807 38.41C231.48 38.2233 231.153 38.0867 230.827 38C230.5 37.9067 230.18 37.86 229.867 37.86C229.553 37.86 229.297 37.8967 229.097 37.97C228.897 38.0433 228.753 38.14 228.667 38.26C228.58 38.3733 228.537 38.5067 228.537 38.66C228.537 38.84 228.61 38.9867 228.757 39.1C228.903 39.2067 229.097 39.2933 229.337 39.36C229.577 39.4267 229.84 39.4933 230.127 39.56C230.42 39.6267 230.71 39.7033 230.997 39.79C231.29 39.8767 231.557 39.9933 231.797 40.14C232.037 40.2867 232.23 40.48 232.377 40.72C232.53 40.96 232.607 41.2633 232.607 41.63C232.607 42.0233 232.497 42.3833 232.277 42.71C232.057 43.0367 231.727 43.3 231.287 43.5C230.853 43.7 230.303 43.8 229.637 43.8Z" fill="#A8A5CA"/>
<path d="M238.62 45.62H237.13C237.563 44.8667 237.873 44.11 238.06 43.35C238.253 42.5833 238.35 41.78 238.35 40.94C238.35 40.1 238.253 39.3 238.06 38.54C237.873 37.7733 237.563 37.0133 237.13 36.26H238.62C239.033 36.8533 239.347 37.5533 239.56 38.36C239.773 39.16 239.88 40.02 239.88 40.94C239.88 41.86 239.773 42.72 239.56 43.52C239.347 44.3133 239.033 45.0133 238.62 45.62Z" fill="#A8A5CA"/>
</svg>
