<svg width="49" height="49" viewBox="0 0 49 49" fill="none" xmlns="http://www.w3.org/2000/svg">
<path fill-rule="evenodd" clip-rule="evenodd" d="M0.939641 17.484C2.51988 11.9774 6.65308 7.37523 12.9272 3.89919C19.2013 0.423143 25.2948 -0.640538 30.8016 0.93959C36.3082 2.51986 40.9103 6.65311 44.3863 12.9272C47.8624 19.2013 48.9262 25.2948 47.3461 30.8016C45.7655 36.3083 41.6324 40.9103 35.3583 44.3864C29.0842 47.8624 22.9906 48.9263 17.4841 47.346C11.9774 45.7655 7.3752 41.6324 3.89915 35.3583C0.423111 29.0842 -0.640636 22.9906 0.939641 17.484ZM16.1352 9.6893C16.7092 9.37128 17.3972 9.33382 18.0024 9.58761L30.0824 14.6538C31.1475 15.1005 31.6672 16.311 31.2568 17.3909L27.4847 27.32C27.1132 28.2977 26.0903 28.8644 25.0645 28.6609L14.646 26.5938C13.513 26.369 12.7621 25.2866 12.9482 24.1466L15.0588 11.2185C15.1645 10.5708 15.5612 10.0073 16.1352 9.6893ZM21.1106 32.5529C19.9497 32.3225 18.822 33.0769 18.5917 34.2377C18.3613 35.3985 19.1157 36.5263 20.2765 36.7566L30.695 38.8239C31.7208 39.0273 32.7438 38.4606 33.1152 37.483L36.8873 27.5537C37.3077 26.4474 36.7515 25.2099 35.6452 24.7895C34.5389 24.3692 33.3013 24.9253 32.881 26.0317L29.7521 34.2672L21.1106 32.5529Z" fill="#FFE500"/>
</svg>
